<svg xmlns="http://www.w3.org/2000/svg" xml:space="preserve" width="192" height="192" data-version="2">
    <path fill="#112d4e" d="M30.94 130.74q5.23-7.86 8.7-14.63 3.46-6.78 6.7-15.71 10.93 6.31 25.41 9.85 14.47 3.55 26.95 3.55 12.78 0 18.01-2.24 5.24-2.23 5.24-4.85 0-9.39-28.64-9.39-31.42 0-45.59-6.55-14.17-6.54-14.17-21.17 0-20.79 17.25-30.65 17.25-9.85 44.82-9.85 16.01 0 32.87 4.08 16.87 4.08 30.42 11.16-4.47 10.17-9.39 24.8-.93 3.08-1.54 4.62-7.86-6.32-23.72-10.55-15.86-4.24-28.03-4.24-14.63 0-19.71 1.93-5.08 1.92-5.08 5.62 0 3.69 7 5.93 7.01 2.23 20.26 2.23 32.64 0 47.43 7.47 14.78 7.47 14.78 22.87 0 21.56-15.71 31.03-15.7 9.47-47.58 9.47-17.1 0-34.81-3.77-17.71-3.78-31.87-11.01" paint-order="stroke"/>
</svg>
