<svg xmlns="http://www.w3.org/2000/svg" xml:space="preserve" width="16" height="16" data-version="2">
    <path d="M3.35 10.3q.38-.56.62-1.04.25-.49.48-1.12.78.45 1.82.7 1.03.25 1.92.25.92 0 1.29-.16t.37-.34q0-.67-2.04-.67-2.25 0-3.26-.47-1.01-.47-1.01-1.51 0-1.49 1.23-2.19 1.23-.71 3.2-.71 1.15 0 2.35.29 1.21.3 2.17.8-.32.73-.67 1.77-.06.22-.11.33-.56-.45-1.69-.75t-2-.3q-1.05 0-1.41.13-.36.14-.36.41 0 .26.5.42.5.16 1.44.16 2.33 0 3.39.53 1.06.54 1.06 1.64 0 1.54-1.13 2.21-1.12.68-3.39.68-1.23 0-2.49-.27-1.27-.27-2.28-.79" paint-order="stroke"/>
</svg>
