<svg xmlns="http://www.w3.org/2000/svg" version="1.1" xmlns:xlink="http://www.w3.org/1999/xlink" width="2000" height="96" viewBox="0 0 2000 96"><svg xml:space="preserve" width="2000" height="96" data-version="2" data-id="lg_BZfaF7CdcHJhbd6v4Y" viewBox="0 0 571 96" x="0" y="0"><rect width="100%" height="100%" fill="transparent"></rect><path fill="#112d4e" d="M5.92 82.685q4.18-6.27 6.95-11.69 2.77-5.41 5.35-12.54 8.73 5.04 20.29 7.87 11.57 2.83 21.53 2.83 10.21 0 14.39-1.78 4.18-1.79 4.18-3.88 0-7.5-22.87-7.5-25.1 0-36.41-5.23-11.32-5.23-11.32-16.91 0-16.61 13.78-24.48 13.77-7.87 35.79-7.87 12.79 0 26.26 3.26 13.47 3.26 24.29 8.92-3.56 8.11-7.5 19.8-.74 2.46-1.23 3.69-6.27-5.04-18.94-8.43-12.67-3.38-22.39-3.38-11.68 0-15.74 1.54-4.06 1.54-4.06 4.49t5.6 4.73q5.59 1.79 16.17 1.79 26.08 0 37.88 5.96 11.81 5.97 11.81 18.27 0 17.22-12.54 24.78-12.55 7.57-38.01 7.57-13.65 0-27.8-3.02-14.14-3.01-25.46-8.79m186.47-32.1V3.845h30.5v48.95q-.24 18.08-12.36 29.89-12.12 11.81-40.77 11.81-29.03 0-39.73-11.26-10.7-11.25-10.46-29.58V3.845h30.51v47.84q0 5.42.8 8.8.79 3.38 5.16 6.33t14.09 2.95q10.57 0 15.49-3.01t5.85-6.7q.92-3.69.92-9.47M306.9 3.965h28.91q-.87 20.79-.87 44.65t.87 44.65H306.9v-33.46h-45.26v33.46h-28.91q.99-23.86.99-44.65t-.99-44.65h28.91v33.46h45.26zm110.82 44.89q28.05 0 28.05 17.84 0 8.36-3.81 14.21-3.82 5.84-13.66 9.1t-27.3 3.26h-55.35q.98-23.86.98-44.65t-.98-44.65h28.9v.12h26.2q15.25 0 24.05 2.52 8.79 2.53 12.42 7.32 3.63 4.8 3.63 12.18 0 7.5-5.23 13.34-5.23 5.85-17.9 9.41m-19.55-22.38h-23.62v11.44h23.62q7.62 0 10.64-1.36 3.01-1.35 3.01-4.92 0-2.82-3.14-3.99-3.13-1.17-10.51-1.17m-23.62 44.28h23.62q6.39 0 9.78-.56 3.38-.55 4.85-1.96 1.48-1.42 1.48-3.88 0-3.2-3.51-4.61-3.5-1.41-12.6-1.41h-23.62zm190.53 22.51h-31.86q-2.34-7.01-6.27-17.59h-39.24l-6.15 17.59h-30.87l34.44-89.3h45.26zm-70.36-36.78h25.22q-4.68-12.91-9.6-25.83l-2.95-7.99q-4.3 11.19-12.67 33.82"></path></svg></svg>